<svg xmlns="http://www.w3.org/2000/svg" enable-background="new 0 0 64 64" viewBox="0 0 64 64"><path fill="#44479c" d="M58.09 64H5.91c-.54 0-.97-.43-.97-.97V52.72c0-10.66 8.67-19.33 19.33-19.33.19 0 .38.06.54.17 4.53 3.05 9.25 3.04 14.42-.03.15-.09.32-.14.49-.14 10.66 0 19.33 8.67 19.33 19.33v10.31C59.06 63.57 58.62 64 58.09 64zM6.88 62.06h50.23v-9.35c0-9.5-7.66-17.25-17.13-17.38-5.62 3.25-11.01 3.25-16.01 0-9.46.15-17.1 7.89-17.1 17.38V62.06zM32 29.97c-8.26 0-14.99-6.72-14.99-14.99S23.74 0 32 0c8.26 0 14.99 6.72 14.99 14.99S40.26 29.97 32 29.97zM32 1.94c-7.2 0-13.05 5.85-13.05 13.05S24.8 28.03 32 28.03c7.19 0 13.05-5.85 13.05-13.05S39.2 1.94 32 1.94z"/></svg>