<svg xmlns="http://www.w3.org/2000/svg" enable-background="new 0 0 144 144" viewBox="0 0 144 144"><path fill="#528AC8" d="M124.36,129.055h-94V74.441c-1-1.31-3.5-3.598-4.215-3.741   c-1.072-0.214-1.785,1.838-1.785,3.741v53.944c0,1.509,0.698,3.016,2.053,3.485c1.71,1.493,4.234,2.609,5.921,2.609l90.504-0.02   c1.903,0,3.435-1.245,4.785-2.604l0.757,0.696" opacity=".3"/><path fill="none" stroke="#3D6CB4" stroke-linecap="round" stroke-linejoin="round" stroke-miterlimit="10" d="M26.045,70.16    c-1.392,1.444-2.251,3.404-2.251,5.556v50.749c0,4.408,3.607,8.015,8.015,8.015h90.442c4.408,0,8.015-3.607,8.015-8.015V75.715    c0-2.151-0.859-4.112-2.251-5.555"/><line x1="91.621" x2="127.988" y1="100.892" y2="70.139" fill="none" stroke="#3D6CB4" stroke-linecap="round" stroke-linejoin="round" stroke-miterlimit="10"/><line x1="26.069" x2="62.341" y1="70.136" y2="100.81" fill="none" stroke="#3D6CB4" stroke-linecap="round" stroke-linejoin="round" stroke-miterlimit="10"/><line x1="32.608" x2="26.069" y1="63.599" y2="70.136" fill="none" stroke="#3D6CB4" stroke-linecap="round" stroke-linejoin="round" stroke-miterlimit="10"/><polyline fill="none" stroke="#3D6CB4" stroke-linecap="round" stroke-linejoin="round" stroke-miterlimit="10" points="99.073 41.227 77.03 19.186 54.965 41.247"/><line x1="127.988" x2="121.493" y1="70.139" y2="63.644" fill="none" stroke="#3D6CB4" stroke-linecap="round" stroke-linejoin="round" stroke-miterlimit="10"/><line x1="77.028" x2="25.821" y1="88.9" y2="131.778" fill="none" stroke="#3D6CB4" stroke-linecap="round" stroke-linejoin="round" stroke-miterlimit="10"/><line x1="77.028" x2="127.988" y1="88.9" y2="131.844" fill="none" stroke="#3D6CB4" stroke-linecap="round" stroke-linejoin="round" stroke-miterlimit="10"/><polyline fill="none" stroke="#3D6CB4" stroke-linecap="round" stroke-linejoin="round" stroke-miterlimit="10" points="121.453 75.666 121.568 41.227 32.608 41.227 32.608 75.666"/><g><circle cx="59.468" cy="66.892" r="4.479" fill="#528AC8" opacity=".3" transform="rotate(-6.76 59.482 66.906)"/><circle cx="59.468" cy="66.892" r="4.479" fill="none" stroke="#3D6CB4" stroke-linecap="round" stroke-linejoin="round" stroke-miterlimit="10" transform="rotate(-6.76 59.482 66.906)"/></g><g><circle cx="77.838" cy="66.892" r="4.479" fill="#528AC8" opacity=".3" transform="rotate(-6.76 77.857 66.906)"/><circle cx="77.838" cy="66.892" r="4.479" fill="none" stroke="#3D6CB4" stroke-linecap="round" stroke-linejoin="round" stroke-miterlimit="10" transform="rotate(-6.76 77.857 66.906)"/></g><g><circle cx="96.209" cy="66.892" r="4.479" fill="#528AC8" opacity=".3" transform="rotate(-6.76 96.231 66.906)"/><circle cx="96.209" cy="66.892" r="4.479" fill="none" stroke="#3D6CB4" stroke-linecap="round" stroke-linejoin="round" stroke-miterlimit="10" transform="rotate(-6.76 96.231 66.906)"/></g><g><line x1="115.727" x2="115.727" y1="11.498" y2="23.343" fill="none" stroke="#3D6CB4" stroke-linecap="round" stroke-linejoin="round" stroke-miterlimit="10"/><line x1="121.649" x2="109.805" y1="17.421" y2="17.421" fill="none" stroke="#3D6CB4" stroke-linecap="round" stroke-linejoin="round" stroke-miterlimit="10"/></g><g><line x1="8.967" x2="8.967" y1="47.564" y2="59.408" fill="none" stroke="#3D6CB4" stroke-linecap="round" stroke-linejoin="round" stroke-miterlimit="10"/><line x1="3.045" x2="14.889" y1="53.486" y2="53.486" fill="none" stroke="#3D6CB4" stroke-linecap="round" stroke-linejoin="round" stroke-miterlimit="10"/></g><g><line x1="136.994" x2="136.994" y1="51.95" y2="59.041" fill="none" stroke="#3D6CB4" stroke-linecap="round" stroke-linejoin="round" stroke-miterlimit="10"/><line x1="140.539" x2="133.448" y1="55.496" y2="55.496" fill="none" stroke="#3D6CB4" stroke-linecap="round" stroke-linejoin="round" stroke-miterlimit="10"/></g></svg>