<svg xmlns="http://www.w3.org/2000/svg" enable-background="new 0 0 32 32" viewBox="0 0 32 32"><path d="M30 9v5.276c0 .267-.323.401-.512.212l-1.604-1.604-4.551 4.551c-.101.101-.26.117-.379.037l-2.912-1.941-3.831 2.873c-.102.076-.241.08-.346.01L13 16.502l-4.891 3.26c-.23.153-.54.091-.693-.139l-.832-1.248c-.153-.23-.091-.54.139-.693l6.111-4.074c.101-.067.232-.067.333 0l2.791 1.861 3.831-2.873c.102-.076.241-.08.346-.01l2.706 1.805 3.275-3.275-1.604-1.604C24.323 9.323 24.457 9 24.724 9H30zM27.5 24.5h-1c-.276 0-.5-.224-.5-.5v-6.5c0-.276.224-.5.5-.5h1c.276 0 .5.224.5.5V24C28 24.276 27.776 24.5 27.5 24.5zM19.5 24.5h-1c-.276 0-.5-.224-.5-.5v-4.5c0-.276.224-.5.5-.5h1c.276 0 .5.224.5.5V24C20 24.276 19.776 24.5 19.5 24.5zM15.5 24.5h-1c-.276 0-.5-.224-.5-.5v-2.5c0-.276.224-.5.5-.5h1c.276 0 .5.224.5.5V24C16 24.276 15.776 24.5 15.5 24.5zM23.5 24.5h-1c-.276 0-.5-.224-.5-.5v-3.5c0-.276.224-.5.5-.5h1c.276 0 .5.224.5.5V24C24 24.276 23.776 24.5 23.5 24.5z"/><path d="M29.505,26C29.781,26,30,26.224,30,26.5v1c0,0.276-0.224,0.5-0.5,0.5H3c-0.552,0-1-0.448-1-1V4.5C2,4.224,2.224,4,2.5,4h1C3.776,4,4,4.224,4,4.5V26C3.9,26,25.902,26,29.505,26z"/><path d="M7.5 24.5h-1C6.224 24.5 6 24.276 6 24v-1.5C6 22.224 6.224 22 6.5 22h1C7.776 22 8 22.224 8 22.5V24C8 24.276 7.776 24.5 7.5 24.5zM11.5 24.5h-1c-.276 0-.5-.224-.5-.5v-2.5c0-.276.224-.5.5-.5h1c.276 0 .5.224.5.5V24C12 24.276 11.776 24.5 11.5 24.5z"/></svg>